<?xml version="1.0" encoding="UTF-8"?>
<svg width="100" height="100" viewBox="0 0 100 100" xmlns="http://www.w3.org/2000/svg">
    <!-- Vaso -->
    <path d="M30 60 L70 60 L65 95 L35 95 Z" fill="#8B4513"/>
    
    <!-- Basilico foglie -->
    <path d="M40 40 Q50 20 60 40" stroke="#2E7D32" stroke-width="3" fill="none"/>
    <path d="M35 45 Q50 25 65 45" stroke="#2E7D32" stroke-width="3" fill="none"/>
    <path d="M30 50 Q50 30 70 50" stroke="#2E7D32" stroke-width="3" fill="none"/>
    
    <!-- Foglie -->
    <ellipse cx="40" cy="35" rx="8" ry="4" fill="#2E7D32" transform="rotate(-20 40 35)"/>
    <ellipse cx="60" cy="35" rx="8" ry="4" fill="#2E7D32" transform="rotate(20 60 35)"/>
    <ellipse cx="35" cy="42" rx="8" ry="4" fill="#2E7D32" transform="rotate(-20 35 42)"/>
    <ellipse cx="65" cy="42" rx="8" ry="4" fill="#2E7D32" transform="rotate(20 65 42)"/>
    <ellipse cx="50" cy="30" rx="8" ry="4" fill="#2E7D32"/>
</svg>
